<svg xmlns="http://www.w3.org/2000/svg" xmlns:xlink="http://www.w3.org/1999/xlink" width="500" zoomAndPan="magnify" viewBox="0 0 375 374.999991" height="500" preserveAspectRatio="xMidYMid meet" version="1.0"><defs><clipPath id="3afdfaab9c"><path d="M 73.769531 169 L 301.019531 169 L 301.019531 336.84375 L 73.769531 336.84375 Z M 73.769531 169 " clip-rule="nonzero"/></clipPath></defs><path fill="#edcfc9" d="M 220.941406 111.6875 C 219.902344 115.371094 218.464844 119.023438 216.007812 121.992188 C 213.175781 125.414062 209.15625 127.703125 204.992188 129.359375 C 204.355469 129.609375 203.707031 129.847656 203.050781 130.066406 C 203.195312 132.21875 203.449219 134.351562 203.984375 136.4375 C 204.699219 139.210938 205.917969 141.871094 206.335938 144.707031 C 206.753906 147.539062 206.148438 151.558594 203.90625 153.386719 L 213.101562 184.171875 C 212.484375 184.496094 212.121094 184.914062 211.53125 185.277344 C 205.242188 189.210938 197.875 191.59375 190.425781 191.523438 C 182.984375 191.449219 175.480469 188.816406 170.058594 183.789062 C 167.65625 181.558594 165.636719 178.816406 164.808594 175.664062 C 164.246094 173.515625 164.257812 171.269531 164.160156 169.050781 C 163.949219 164.160156 164.855469 158.625 161.558594 154.957031 C 158.910156 152.003906 154.300781 151.871094 150.347656 152.5 C 146.402344 153.128906 142.304688 154.28125 138.484375 153.109375 C 134.054688 151.757812 130.957031 147.0625 131.492188 142.535156 C 131.738281 140.480469 132.578125 138.203125 131.386719 136.507812 C 130.328125 135 127.796875 134.152344 128.109375 132.34375 C 128.386719 130.722656 130.722656 130.4375 131.71875 129.113281 C 130.355469 128.007812 129.136719 126.730469 128.089844 125.332031 C 127.386719 124.398438 126.738281 123.28125 126.964844 122.136719 C 127.328125 120.261719 129.84375 119.28125 130.035156 117.375 C 130.261719 115.070312 127.0625 113.945312 126.164062 111.800781 C 125.367188 109.878906 126.71875 107.832031 128.332031 106.496094 C 131.464844 103.894531 134.417969 100.910156 136.410156 97.378906 C 138.644531 93.425781 138.464844 88.660156 139 84.164062 C 140.132812 74.617188 143.992188 63.101562 151.1875 56.59375 C 158.75 56.421875 168.050781 60.671875 175.050781 63.492188 C 177.644531 64.539062 180.269531 65.605469 182.539062 67.222656 C 185.175781 69.101562 187.234375 71.644531 189.039062 74.304688 C 193.058594 80.199219 195.945312 86.652344 198.003906 93.417969 C 200.71875 92.320312 203.46875 91.585938 205.839844 91.308594 C 211.292969 90.664062 217.609375 92.480469 220.484375 97.410156 C 222.960938 101.65625 222.277344 106.980469 220.941406 111.6875 Z M 220.941406 111.6875 " fill-opacity="1" fill-rule="nonzero"/><path fill="#c6a98e" d="M 234.34375 176.121094 C 221.21875 179.464844 207.824219 171.714844 204.429688 158.808594 C 203.878906 156.722656 203.628906 154.636719 203.640625 152.585938 C 200.925781 152.042969 198.578125 150.09375 197.121094 147.738281 C 195.496094 145.097656 194.847656 141.992188 194.457031 138.925781 C 193.882812 134.417969 193.882812 129.5625 196.257812 125.664062 C 196.667969 124.996094 197.171875 124.332031 197.882812 123.976562 C 199.230469 123.292969 200.847656 123.863281 202.355469 123.949219 C 207.042969 124.207031 210.546875 119.726562 212.253906 115.429688 C 213.964844 111.15625 214.796875 106.304688 213.167969 102.007812 C 211.539062 97.710938 206.871094 94.328125 202.3125 95.28125 C 197.648438 96.261719 194.398438 101.199219 189.636719 101.445312 C 187.328125 101.558594 185.128906 100.511719 183.128906 99.359375 C 174.277344 94.253906 167.121094 86.753906 160.644531 78.929688 C 157.765625 75.445312 154.964844 71.835938 153.109375 67.746094 C 151.257812 63.648438 150.394531 58.972656 151.535156 54.636719 C 152.195312 52.113281 158.917969 49.007812 161.101562 47.914062 C 164.445312 46.253906 167.996094 45.089844 171.597656 44.089844 C 185.898438 40.109375 200.488281 38.316406 214.40625 44.5 C 225.972656 49.644531 235.519531 58.886719 241.054688 70.113281 C 248.429688 85.078125 248.027344 103.257812 241.140625 118.453125 C 241.125 118.488281 241.109375 118.527344 241.09375 118.5625 C 238.570312 124.113281 239.871094 130.695312 244.472656 134.699219 C 248.003906 137.769531 250.675781 141.875 251.949219 146.707031 C 255.34375 159.609375 247.457031 172.785156 234.34375 176.121094 Z M 234.34375 176.121094 " fill-opacity="1" fill-rule="nonzero"/><g clip-path="url(#3afdfaab9c)"><path fill="#000000" d="M 301.164062 336.632812 L 186.816406 336.632812 C 129.414062 336.632812 73.863281 336.632812 73.863281 336.632812 C 74.402344 336.640625 77.8125 280.152344 78.183594 274.761719 C 78.46875 270.589844 78.816406 266.007812 79.324219 261.210938 C 81.867188 237.25 84.246094 209.988281 107.417969 200.832031 C 118.644531 196.398438 138.730469 196.425781 149.707031 190.941406 C 157.8125 186.890625 159.464844 178.535156 162.386719 169.800781 C 163.785156 170.023438 166.914062 170.246094 168.316406 170.460938 C 181.410156 172.46875 193.644531 172.464844 206.710938 170.460938 C 208.109375 170.246094 209.507812 170.023438 210.90625 169.800781 C 213.828125 178.535156 217.214844 186.890625 225.316406 190.941406 C 236.292969 196.425781 256.382812 196.398438 267.605469 200.832031 C 290.777344 209.988281 293.160156 237.25 295.703125 261.210938 C 296.210938 266.007812 296.558594 270.589844 296.84375 274.761719 C 297.210938 280.152344 300.621094 336.640625 301.164062 336.632812 Z M 301.164062 336.632812 " fill-opacity="1" fill-rule="nonzero"/></g><path fill="#a6a6a6" d="M 184.925781 144.875 C 187.054688 145.320312 189.191406 145.707031 191.335938 146.058594 C 192.4375 142.433594 194.3125 138.339844 198.867188 138.972656 C 200.839844 139.246094 201.734375 140.378906 201.992188 142.261719 C 202.234375 144.007812 202.175781 145.84375 202.050781 147.640625 C 204.199219 147.949219 206.34375 148.273438 208.484375 148.636719 C 208.730469 145.359375 208.882812 141.808594 207.757812 138.753906 C 206.796875 136.140625 204.808594 134.328125 202.332031 133.359375 C 205.113281 131.707031 205.175781 127.054688 202.222656 125.472656 C 202.820312 125.273438 203.359375 124.96875 203.835938 124.546875 L 204.203125 124.21875 C 204.667969 123.835938 205.007812 123.367188 205.21875 122.816406 C 205.53125 122.296875 205.691406 121.722656 205.699219 121.101562 C 205.75 120.484375 205.648438 119.898438 205.386719 119.351562 C 205.230469 118.78125 204.9375 118.285156 204.511719 117.855469 C 204.214844 117.605469 203.917969 117.355469 203.621094 117.105469 C 202.925781 116.664062 202.167969 116.421875 201.339844 116.378906 L 200.117188 116.480469 C 199.332031 116.65625 198.640625 117.007812 198.042969 117.539062 C 197.917969 117.648438 197.796875 117.753906 197.675781 117.863281 C 197.207031 118.25 196.871094 118.71875 196.65625 119.265625 C 196.34375 119.789062 196.1875 120.359375 196.179688 120.980469 C 196.125 121.597656 196.230469 122.183594 196.488281 122.734375 C 196.648438 123.300781 196.9375 123.800781 197.367188 124.230469 C 197.664062 124.476562 197.960938 124.726562 198.257812 124.976562 C 198.355469 125.039062 198.457031 125.089844 198.554688 125.140625 C 195.390625 126.117188 194.695312 130.398438 196.746094 132.613281 C 194.246094 132.863281 191.828125 133.875 189.972656 135.558594 C 187.253906 138.019531 185.902344 141.449219 184.925781 144.875 Z M 184.925781 144.875 " fill-opacity="1" fill-rule="nonzero"/></svg>